<?xml version="1.0" standalone="no"?>
<!DOCTYPE svg PUBLIC "-//W3C//DTD SVG 20010904//EN"
 "http://www.w3.org/TR/2001/REC-SVG-20010904/DTD/svg10.dtd">
<svg version="1.0" xmlns="http://www.w3.org/2000/svg"
 width="700.000000pt" height="700.000000pt" viewBox="0 0 700.000000 700.000000"
 preserveAspectRatio="xMidYMid meet">
<metadata>
Created by potrace 1.14, written by Peter Selinger 2001-2017
</metadata>
<g transform="translate(0.000000,700.000000) scale(0.100000,-0.100000)"
fill="#000000" stroke="none">
<path d="M3178 6789 c-102 -11 -160 -19 -188 -24 -14 -3 -41 -7 -60 -10 -60
-10 -360 -75 -463 -101 -396 -99 -768 -284 -1100 -546 -131 -104 -388 -363
-497 -502 -274 -349 -491 -743 -619 -1123 -39 -116 -93 -318 -106 -393 -7 -45
-17 -100 -21 -125 -2 -11 -7 -47 -10 -80 -3 -33 -8 -71 -10 -85 -9 -43 -11
-401 -4 -480 18 -177 29 -253 56 -390 16 -82 17 -88 70 -270 83 -291 285 -723
457 -979 56 -83 155 -215 212 -281 59 -68 292 -299 360 -356 274 -231 672
-474 980 -599 50 -20 104 -42 120 -49 34 -15 228 -79 295 -97 25 -7 50 -14 55
-15 37 -11 451 -93 495 -99 30 -4 64 -9 75 -11 150 -26 637 -26 795 1 14 2 43
7 65 10 74 10 240 44 320 65 869 230 1535 793 2013 1700 128 244 263 607 297
800 3 18 8 36 10 40 8 13 44 247 52 338 10 109 10 433 0 532 -38 374 -138 723
-307 1065 -252 510 -410 743 -710 1044 -85 85 -302 273 -356 307 -16 11 -35
24 -41 30 -23 22 -272 184 -282 184 -6 0 -11 5 -11 10 0 6 -5 10 -10 10 -6 0
-28 11 -51 25 -70 45 -300 161 -413 210 -165 70 -424 155 -546 180 -8 2 -51
10 -95 20 -177 36 -283 46 -520 49 -132 2 -270 0 -307 -5z m1537 -990 c99 -37
198 -98 248 -154 54 -58 99 -205 99 -320 -1 -185 -44 -359 -158 -639 -101
-245 -295 -631 -489 -971 -32 -55 -69 -120 -83 -145 -22 -40 -114 -196 -212
-360 -63 -106 -234 -386 -275 -450 -23 -36 -66 -103 -96 -150 -196 -309 -453
-676 -623 -890 -277 -348 -496 -530 -706 -585 -81 -21 -221 -14 -290 15 -301
128 -400 386 -299 775 11 44 22 87 24 95 6 31 99 268 147 374 55 122 251 514
309 616 20 36 48 88 64 115 177 322 541 929 760 1270 72 112 306 464 322 485
7 8 36 49 65 90 30 41 65 91 78 110 32 45 201 263 209 270 3 3 24 28 46 55 61
76 233 246 298 294 179 131 382 167 562 100z m-22 -1854 c-3 -9 -8 -14 -10
-11 -3 3 -2 9 2 15 9 16 15 13 8 -4z m-62 -118 c-10 -9 -11 -8 -5 6 3 10 9 15
12 12 3 -3 0 -11 -7 -18z m-46 -84 c-21 -38 -42 -72 -48 -78 -8 -8 21 49 70
138 2 4 7 7 9 7 3 0 -11 -30 -31 -67z m-136 -242 c-24 -45 -47 -81 -50 -81 -4
0 14 38 40 84 25 46 48 82 50 81 1 -2 -17 -40 -40 -84z m-106 -178 c-3 -10
-14 -29 -23 -43 -10 -14 -27 -45 -39 -68 -12 -24 -25 -42 -27 -39 -3 3 15 42
41 86 45 79 61 99 48 64z m-189 -322 c-26 -44 -50 -79 -52 -77 -2 3 18 41 44
85 27 44 50 78 52 76 2 -2 -17 -40 -44 -84z m-151 -245 c-26 -42 -51 -76 -55
-76 -4 0 16 36 44 80 28 44 53 79 55 76 2 -2 -18 -38 -44 -80z m-135 -213
c-17 -27 -40 -62 -52 -80 -11 -17 -22 -30 -24 -29 -5 5 92 156 100 156 4 0 -7
-21 -24 -47z m-134 -205 c-20 -34 -107 -158 -111 -158 -5 0 1 11 59 98 27 39
51 72 54 72 3 0 2 -6 -2 -12z m-205 -303 c-29 -41 -59 -81 -68 -87 -8 -7 -5 1
7 17 13 17 34 48 49 70 26 41 53 75 60 75 2 0 -20 -34 -48 -75z m-142 -194
c-14 -17 -27 -36 -30 -43 -2 -7 -7 -11 -10 -8 -3 3 9 24 26 47 18 22 34 39 36
37 2 -2 -8 -17 -22 -33z m-91 -119 c-17 -16 -18 -16 -5 5 7 12 15 20 18 17 3
-2 -3 -12 -13 -22z m-36 -46 c0 -2 -8 -10 -17 -17 -16 -13 -17 -12 -4 4 13 16
21 21 21 13z m-30 -39 c0 -2 -10 -12 -22 -23 l-23 -19 19 23 c18 21 26 27 26
19z"/>
</g>
</svg>
