<svg id="Layer_2" data-name="Layer 2" xmlns="http://www.w3.org/2000/svg" xmlns:xlink="http://www.w3.org/1999/xlink" width="1000" height="1000" viewBox="0 0 1000 1000"><defs><style>.cls-1{fill:none;}.cls-2{fill:#231f20;}.cls-3{stroke:#231f20;stroke-miterlimit:10;stroke-width:18px;fill:url(#New_Pattern_3);}</style><pattern id="New_Pattern_3" data-name="New Pattern 3" width="110.0001" height="110.0001" patternTransform="translate(-1.375 30.2495)" patternUnits="userSpaceOnUse" viewBox="0 0 110 110"><rect class="cls-1" width="110.0001" height="110.0001"/><rect class="cls-2" x="27.0001" y="106.2001" width="12" height="12" rx="3"/><rect class="cls-2" x="93.0001" y="88.6001" width="12" height="12" rx="3"/><rect class="cls-2" x="71.0001" y="101.8001" width="12" height="12" rx="3"/><rect class="cls-2" x="49.0001" y="93.0001" width="12" height="12" rx="3"/><rect class="cls-2" x="27.0001" y="84.2001" width="12" height="12" rx="3"/><rect class="cls-2" x="5" y="97.4001" width="12" height="12" rx="3"/><rect class="cls-2" x="93.0001" y="66.6001" width="12" height="12" rx="3"/><rect class="cls-2" x="71.0001" y="79.8001" width="12" height="12" rx="3"/><rect class="cls-2" x="49.0001" y="71.0001" width="12" height="12" rx="3"/><rect class="cls-2" x="27.0001" y="62.2001" width="12" height="12" rx="3"/><rect class="cls-2" x="5" y="75.4001" width="12" height="12" rx="3"/><rect class="cls-2" x="93.0001" y="44.6001" width="12" height="12" rx="3"/><rect class="cls-2" x="71.0001" y="57.8001" width="12" height="12" rx="3"/><rect class="cls-2" x="49.0001" y="49.0001" width="12" height="12" rx="3"/><rect class="cls-2" x="27.0001" y="40.2001" width="12" height="12" rx="3"/><rect class="cls-2" x="5" y="53.4001" width="12" height="12" rx="3"/><rect class="cls-2" x="93.0001" y="22.6001" width="12" height="12" rx="3"/><rect class="cls-2" x="71.0001" y="35.8001" width="12" height="12" rx="3"/><rect class="cls-2" x="49.0001" y="27.0001" width="12" height="12" rx="3"/><rect class="cls-2" x="27.0001" y="18.2001" width="12" height="12" rx="3"/><rect class="cls-2" x="5" y="31.4001" width="12" height="12" rx="3"/><rect class="cls-2" x="93.0001" y="0.6001" width="12" height="12" rx="3"/><rect class="cls-2" x="71.0001" y="13.8001" width="12" height="12" rx="3"/><rect class="cls-2" x="49.0001" y="5.0001" width="12" height="12" rx="3"/><rect class="cls-2" x="27.0001" y="-3.7999" width="12" height="12" rx="3"/><rect class="cls-2" x="5" y="9.4001" width="12" height="12" rx="3"/><rect class="cls-2" x="71.0001" y="-8.1999" width="12" height="12" rx="3"/></pattern></defs><path class="cls-3" d="M109.3855,268.9821Q214.4464,95.5947,387.06,51.0118T727.8277,108.321Q896.7291,210.666,936.9636,383.7121t-65.2794,347.181Q766.17,905.028,593.9305,949.8373T252.7892,892.3016Q86.13,791.3152,45.68,616.0951T109.3855,268.9821ZM393.2208,443.0142Q272.31,642.5594,252.4,723.4754T286.3,836.997q54.5567,33.0584,118.3448-23.3134T587.5322,560.7562Q706.6315,364.2006,726.8468,281.937T692.5054,166.6151Q638.6962,134.01,577.32,187.2446T393.2208,443.0142Z"/></svg>