<svg id="Layer_1" data-name="Layer 1" xmlns="http://www.w3.org/2000/svg" viewBox="0 0 268.71 50.13"><defs><style>.cls-1{fill:#231f20;}</style></defs><path class="cls-1" d="M14.18,27.5v6.42h-.51A6.78,6.78,0,0,0,12,30a4.6,4.6,0,0,0-3.44-1.37,3.42,3.42,0,0,0-1.3.24,3.72,3.72,0,0,0-1.05.65,2.75,2.75,0,0,0-.69.91,2.36,2.36,0,0,0,0,2,5.63,5.63,0,0,0,1.26,1.44c1.19.75,2.25,1.37,3.17,1.86s2.06,1.2,3.54,2.17a5,5,0,0,1,1.47,1.75,4.62,4.62,0,0,1,.51,2.11,4.69,4.69,0,0,1-.43,2,5,5,0,0,1-1.19,1.64,5.81,5.81,0,0,1-1.85,1.13,6.49,6.49,0,0,1-2.37.42A8,8,0,0,1,8,46.8c-.08,0-.29-.07-.64-.17l-1.11-.32L5.18,46a4.17,4.17,0,0,0-.59-.15.7.7,0,0,0-.54.21,1.69,1.69,0,0,0-.3.86H3.24V40.55h.51a10.15,10.15,0,0,0,1,3,3.62,3.62,0,0,0,.77.91,5.57,5.57,0,0,0,1.08.74,6.12,6.12,0,0,0,1.3.49,5.55,5.55,0,0,0,1.41.17,4.61,4.61,0,0,0,1.54-.24A3.52,3.52,0,0,0,12,45a2.89,2.89,0,0,0,.74-1A2.69,2.69,0,0,0,13,42.82a2.78,2.78,0,0,0-.38-1.39,4.44,4.44,0,0,0-1.27-1.37L9.23,38.81q-2.31-1.34-4.11-2.56A5.71,5.71,0,0,1,3.6,34.51a4.32,4.32,0,0,1-.52-2.12,4.46,4.46,0,0,1,.4-1.87A5.14,5.14,0,0,1,4.62,29a5.32,5.32,0,0,1,1.73-1.07,5.88,5.88,0,0,1,2.16-.39,7.82,7.82,0,0,1,3.13.72l.66.27a1.1,1.1,0,0,0,.43.08.84.84,0,0,0,.59-.21,1.63,1.63,0,0,0,.35-.86Z" transform="translate(-3.08 -5.03)"/><path class="cls-1" d="M21.85,29.83v4.11h2.93v1H21.85V43a4.74,4.74,0,0,0,.1,1,1.67,1.67,0,0,0,.26.64,1.09,1.09,0,0,0,.4.32,1.3,1.3,0,0,0,.49.09,1.54,1.54,0,0,0,.89-.28,1.73,1.73,0,0,0,.65-.83h.53a4.32,4.32,0,0,1-1.35,2A3,3,0,0,1,22,46.7,2.21,2.21,0,0,1,20.26,46a4,4,0,0,1-.65-2.6V34.91h-2v-.45a5.23,5.23,0,0,0,2.1-1.55,11.39,11.39,0,0,0,1.73-3.08Z" transform="translate(-3.08 -5.03)"/><path class="cls-1" d="M37.42,33.94v7.61c0,.86,0,1.53.06,2a5,5,0,0,0,.15,1.06.61.61,0,0,0,.28.41,1.57,1.57,0,0,0,.48.07,2.84,2.84,0,0,0,1-.23l.18.47-3.76,1.56h-.62V44.23c-.55.6-1,1.08-1.42,1.43a7,7,0,0,1-1,.81,2.56,2.56,0,0,1-.88.34,4.94,4.94,0,0,1-.9.08,2.63,2.63,0,0,1-2.46-1.28A7.19,7.19,0,0,1,27.69,42V36.4a3.93,3.93,0,0,0-.1-1,1.14,1.14,0,0,0-.34-.59,1.23,1.23,0,0,0-.6-.27,4.78,4.78,0,0,0-.92-.07h-.16v-.52H30v8.41a4.91,4.91,0,0,0,.18,1.46,2.11,2.11,0,0,0,.46.87,1.44,1.44,0,0,0,.66.41,2.9,2.9,0,0,0,.79.1,3,3,0,0,0,1.33-.37,7.15,7.15,0,0,0,1.77-1.41V36.32a3.75,3.75,0,0,0-.08-.89,1.11,1.11,0,0,0-.3-.58,1.33,1.33,0,0,0-.62-.3,4.55,4.55,0,0,0-1-.09v-.52Z" transform="translate(-3.08 -5.03)"/><path class="cls-1" d="M49.72,45.09a6.39,6.39,0,0,1-1.79,1.38,4.29,4.29,0,0,1-1.89.42,4.36,4.36,0,0,1-1.94-.46,5.29,5.29,0,0,1-1.63-1.28,6.37,6.37,0,0,1-1.12-1.94,7,7,0,0,1-.42-2.46,8,8,0,0,1,.44-2.58,7.51,7.51,0,0,1,1.24-2.3,6.2,6.2,0,0,1,1.91-1.66A4.9,4.9,0,0,1,47,33.58a3.77,3.77,0,0,1,2.74,1V32.31c0-.87,0-1.55,0-2a5.34,5.34,0,0,0-.15-1q-.1-.33-.3-.39a1.56,1.56,0,0,0-.46-.06,2.47,2.47,0,0,0-.94.23l-.18-.49L51.38,27H52V41.53c0,.87,0,1.55,0,2a5,5,0,0,0,.15,1.06.66.66,0,0,0,.3.41,1.5,1.5,0,0,0,.47.07,3.22,3.22,0,0,0,1-.23l.15.47-3.73,1.56h-.63Zm0-1V37.67a3.89,3.89,0,0,0-.34-1.38,3.48,3.48,0,0,0-.68-1,2.72,2.72,0,0,0-.9-.63,2.42,2.42,0,0,0-2.31.16,3.47,3.47,0,0,0-1.08,1.08,6,6,0,0,0-.72,1.65,8,8,0,0,0-.27,2.15,8.24,8.24,0,0,0,.34,2.45,6.1,6.1,0,0,0,.88,1.79A3.67,3.67,0,0,0,45.88,45a3.06,3.06,0,0,0,1.43.36A3.34,3.34,0,0,0,49.72,44.13Z" transform="translate(-3.08 -5.03)"/><path class="cls-1" d="M59.65,33.58V43.66a7,7,0,0,0,.1,1.38,1.24,1.24,0,0,0,.34.69,1,1,0,0,0,.59.25q.36,0,.87,0v.49H55.46V46a4.53,4.53,0,0,0,1-.09,1.11,1.11,0,0,0,.58-.36,1.47,1.47,0,0,0,.26-.73c0-.3,0-.7,0-1.17V38.83c0-.79,0-1.42,0-1.88a4.75,4.75,0,0,0-.15-1,.63.63,0,0,0-.29-.43,1.21,1.21,0,0,0-.5-.09,1.51,1.51,0,0,0-.42.05,3.37,3.37,0,0,0-.5.15l-.21-.49L59,33.58ZM58.5,27a1.37,1.37,0,0,1,1.39,1.39,1.32,1.32,0,0,1-.4,1,1.28,1.28,0,0,1-1,.41,1.38,1.38,0,0,1-1.39-1.39,1.34,1.34,0,0,1,.4-1A1.38,1.38,0,0,1,58.5,27Z" transform="translate(-3.08 -5.03)"/><path class="cls-1" d="M72.35,34.15a5.7,5.7,0,0,1,2,1.45,6.06,6.06,0,0,1,1.19,2A6.33,6.33,0,0,1,75.87,40a6.62,6.62,0,0,1-.59,2.45,7.42,7.42,0,0,1-1.59,2.36,6.69,6.69,0,0,1-2.13,1.44,6.14,6.14,0,0,1-2.38.49,5.73,5.73,0,0,1-2.35-.5,5.44,5.44,0,0,1-2-1.45,6,6,0,0,1-1.14-2.07,7.2,7.2,0,0,1,1.81-7,7.22,7.22,0,0,1,2-1.45,6.07,6.07,0,0,1,2.36-.58A5.21,5.21,0,0,1,72.35,34.15Zm-.17.9a2.73,2.73,0,0,0-1.12-.36,2.58,2.58,0,0,0-1.26.21,4.53,4.53,0,0,0-1.34.92,7.9,7.9,0,0,0-1.33,1.75,12.06,12.06,0,0,0-1,2.34,8.29,8.29,0,0,0-.4,2.24,4.6,4.6,0,0,0,.34,1.9,2.64,2.64,0,0,0,1.14,1.3,3,3,0,0,0,1.18.4,2.44,2.44,0,0,0,1.25-.23,4.41,4.41,0,0,0,1.32-1,9.75,9.75,0,0,0,1.35-1.85,11.71,11.71,0,0,0,1-2.33,7.53,7.53,0,0,0,.38-2.19,4.23,4.23,0,0,0-.35-1.84A2.73,2.73,0,0,0,72.18,35.05Z" transform="translate(-3.08 -5.03)"/><path class="cls-1" d="M81.35,19.17H78V16.66a17.74,17.74,0,0,0,7.13-4.31A19.13,19.13,0,0,0,89.66,5h2.76V15.86h5.77v3.31H92.42V37.63A8.38,8.38,0,0,0,93,41.22a2,2,0,0,0,1.87,1.14,2.94,2.94,0,0,0,1.43-.46,7.32,7.32,0,0,0,1.58-1.32l1.56,1.32a16.88,16.88,0,0,1-4.73,4,10.91,10.91,0,0,1-5.17,1.28c-2.74,0-4.79-.75-6.15-2.27s-2-3.79-2-6.84Z" transform="translate(-3.08 -5.03)"/><path class="cls-1" d="M110,34.31v7.91a3.93,3.93,0,0,0,.53,2.25,2.92,2.92,0,0,0,1.78,1.07v1h-12v-1a3,3,0,0,0,1.81-1.08,3.86,3.86,0,0,0,.54-2.24V30.47a4.37,4.37,0,0,0-.54-2.43,2.55,2.55,0,0,0-1.81-1v-1h9.38l.08,3.09A8.77,8.77,0,0,1,112,26.39a4.26,4.26,0,0,1,2.63-.87,2.89,2.89,0,0,1,2.25.94,3.52,3.52,0,0,1,.86,2.45,3.5,3.5,0,0,1-.78,2.4,2.69,2.69,0,0,1-2.11.88,3.91,3.91,0,0,1-2.1-.74,4,4,0,0,0-1.47-.74,1,1,0,0,0-1,.76A9.37,9.37,0,0,0,110,34.31Z" transform="translate(-3.08 -5.03)"/><path class="cls-1" d="M120.43,30.87a10.62,10.62,0,0,1,6.5-5.1,10.05,10.05,0,0,1,8,1.34,10.09,10.09,0,0,1,4.89,6.45,10.58,10.58,0,0,1-1.53,8.12,10.62,10.62,0,0,1-6.49,5.12A10.87,10.87,0,0,1,118.94,39,10.59,10.59,0,0,1,120.43,30.87Zm6.64,4.07a29.31,29.31,0,0,0-3.3,6.57,2.17,2.17,0,0,0,.8,2.65c.85.52,1.77.34,2.77-.54a29.2,29.2,0,0,0,4.28-5.92,29.58,29.58,0,0,0,3.26-6.52q.47-1.93-.81-2.7a2.15,2.15,0,0,0-2.69.48A29.14,29.14,0,0,0,127.07,34.94Z" transform="translate(-3.08 -5.03)"/><path class="cls-1" d="M151.49,50.89a3.32,3.32,0,0,0,.67,2.25,3.89,3.89,0,0,0,2.26,1.07v1H141.78v-1a3,3,0,0,0,1.82-1.07,3.77,3.77,0,0,0,.55-2.25V29.67a2.65,2.65,0,0,0-.57-1.75,4,4,0,0,0-1.8-1.11v-1h9.59v1.8a6,6,0,0,1,2.09-1.57,6.46,6.46,0,0,1,2.63-.52,6.84,6.84,0,0,1,5.75,2.9A12.82,12.82,0,0,1,164,36.28a13.11,13.11,0,0,1-2.11,7.77,6.45,6.45,0,0,1-5.48,3,6.34,6.34,0,0,1-2.7-.57,6.61,6.61,0,0,1-2.23-1.74Zm0-8.62a2.73,2.73,0,0,0,.92,1,2.47,2.47,0,0,0,1.29.32c.89,0,1.53-.59,1.92-1.76a19.59,19.59,0,0,0,.6-5.74,19.25,19.25,0,0,0-.61-5.85,2.12,2.12,0,0,0-2-1.69,2.24,2.24,0,0,0-1.18.33,2.84,2.84,0,0,0-.91,1Z" transform="translate(-3.08 -5.03)"/><path class="cls-1" d="M176.34,26.07V42.22a3.77,3.77,0,0,0,.56,2.24,3,3,0,0,0,1.79,1.08v1H166.47v-1a3,3,0,0,0,1.81-1.08,3.86,3.86,0,0,0,.54-2.24V30.47a4.37,4.37,0,0,0-.54-2.43,2.55,2.55,0,0,0-1.81-1v-1Zm-5.25-6.86a4.89,4.89,0,1,1,8.35,3.46,4.93,4.93,0,0,1-8.35-3.46Z" transform="translate(-3.08 -5.03)"/><path class="cls-1" d="M198.29,39.67l1.31.63a11.44,11.44,0,0,1-3.64,5A8.74,8.74,0,0,1,190.58,47a9,9,0,0,1-7-3,11,11,0,0,1-2.7-7.72,10.77,10.77,0,0,1,2.9-7.78,9.86,9.86,0,0,1,7.45-3,8.58,8.58,0,0,1,5.39,1.67,5,5,0,0,1,2.15,4.08,3.46,3.46,0,0,1-.94,2.47,3.06,3.06,0,0,1-2.33,1,3.3,3.3,0,0,1-2.42-.91,3.14,3.14,0,0,1-.93-2.36q0-.52.06-1.23c0-.46.06-.75.06-.88a2.81,2.81,0,0,0-.37-1.54,1.08,1.08,0,0,0-1-.58c-.88,0-1.55.58-2,1.74a15,15,0,0,0-.68,5.17,11.7,11.7,0,0,0,1.48,6.38,4.62,4.62,0,0,0,4.08,2.29,4.14,4.14,0,0,0,2.44-.8A7.38,7.38,0,0,0,198.29,39.67Z" transform="translate(-3.08 -5.03)"/><path class="cls-1" d="M213.19,44a15,15,0,0,1-3.39,2.31,7.06,7.06,0,0,1-3.05.72,4.58,4.58,0,0,1-3.39-1.35A4.63,4.63,0,0,1,202,42.27q0-2.58,2.73-4.68a25.66,25.66,0,0,1,8.19-3.69V29.63a2.66,2.66,0,0,0-.6-1.85,2.12,2.12,0,0,0-1.65-.66,2.8,2.8,0,0,0-1.6.42,1.28,1.28,0,0,0-.63,1.09,3.81,3.81,0,0,0,.48,1.28,3.72,3.72,0,0,1,.48,1.6,2.82,2.82,0,0,1-.84,2.12,3.06,3.06,0,0,1-2.2.81,3.93,3.93,0,0,1-2.78-1,3.22,3.22,0,0,1-1-2.52A4.49,4.49,0,0,1,205.07,27a12.83,12.83,0,0,1,6.66-1.51q4.34,0,6.41,1.66a6.14,6.14,0,0,1,2.08,5.13V42a2.69,2.69,0,0,0,.21,1.2.7.7,0,0,0,.63.39,1.58,1.58,0,0,0,.54-.13,8.82,8.82,0,0,0,.81-.38l.59.72a9.39,9.39,0,0,1-2.5,2.41,5.08,5.08,0,0,1-2.73.82,4.64,4.64,0,0,1-2.63-.78A5.93,5.93,0,0,1,213.19,44Zm-.25-1.76V35.44a6.57,6.57,0,0,0-2.81,2.11,4.84,4.84,0,0,0-1,3,3.1,3.1,0,0,0,.57,1.93,1.77,1.77,0,0,0,1.47.75,2,2,0,0,0,1-.23A2.57,2.57,0,0,0,212.94,42.22Z" transform="translate(-3.08 -5.03)"/><path class="cls-1" d="M234,28.4a10.31,10.31,0,0,1,3.17-2.17,8.73,8.73,0,0,1,3.54-.75,5,5,0,0,1,4.25,1.86q1.4,1.86,1.39,5.73v8.6a5.48,5.48,0,0,0,.53,2.76,2.56,2.56,0,0,0,1.82,1.11v1H237.28v-1a2,2,0,0,0,1.3-1,6.51,6.51,0,0,0,.38-2.63V32.39a6.15,6.15,0,0,0-.4-2.78A1.56,1.56,0,0,0,237.1,29a2.81,2.81,0,0,0-1.48.47,6.13,6.13,0,0,0-1.53,1.32V42.06a5.64,5.64,0,0,0,.41,2.51,2,2,0,0,0,1.43,1v1H224.38v-1a3,3,0,0,0,1.81-1.08,3.86,3.86,0,0,0,.54-2.24V30.47a4.37,4.37,0,0,0-.54-2.43,2.53,2.53,0,0,0-1.81-1v-1h9.47Z" transform="translate(-3.08 -5.03)"/><path class="cls-1" d="M262,44a15,15,0,0,1-3.39,2.31,7.06,7.06,0,0,1-3,.72,4.58,4.58,0,0,1-3.39-1.35,4.63,4.63,0,0,1-1.34-3.39q0-2.58,2.73-4.68a25.66,25.66,0,0,1,8.19-3.69V29.63a2.66,2.66,0,0,0-.6-1.85,2.12,2.12,0,0,0-1.65-.66,2.8,2.8,0,0,0-1.6.42,1.28,1.28,0,0,0-.63,1.09,3.92,3.92,0,0,0,.49,1.28,3.72,3.72,0,0,1,.48,1.6,2.82,2.82,0,0,1-.85,2.12,3.06,3.06,0,0,1-2.2.81,3.93,3.93,0,0,1-2.78-1,3.22,3.22,0,0,1-1-2.52A4.48,4.48,0,0,1,253.85,27a12.84,12.84,0,0,1,6.67-1.51c2.89,0,5,.55,6.41,1.66A6.16,6.16,0,0,1,269,32.31V42a2.54,2.54,0,0,0,.22,1.2.67.67,0,0,0,.62.39,1.48,1.48,0,0,0,.54-.13,6.89,6.89,0,0,0,.81-.38l.59.72a9.25,9.25,0,0,1-2.5,2.41,5.08,5.08,0,0,1-2.73.82,4.64,4.64,0,0,1-2.63-.78A6,6,0,0,1,262,44Zm-.25-1.76V35.44a6.57,6.57,0,0,0-2.81,2.11,4.84,4.84,0,0,0-1,3,3.1,3.1,0,0,0,.57,1.93,1.77,1.77,0,0,0,1.47.75,2,2,0,0,0,1-.23A2.57,2.57,0,0,0,261.72,42.22Z" transform="translate(-3.08 -5.03)"/></svg>